<svg width="19" height="23" xmlns="http://www.w3.org/2000/svg" xmlns:xlink="http://www.w3.org/1999/xlink" xmlns:svgjs="http://svgjs.com/svgjs" viewBox="595 15 19 23"><svg width="10" height="9" xmlns="http://www.w3.org/2000/svg" xmlns:xlink="http://www.w3.org/1999/xlink" xmlns:svgjs="http://svgjs.com/svgjs" viewBox="0.391 0 9.219 9" fill="none" x="604" y="15"><svg xmlns="http://www.w3.org/2000/svg" xmlns:xlink="http://www.w3.org/1999/xlink" width="10" height="9" viewBox="0.38 0 9.119 8.903"><path paint-order="stroke fill markers" d="M9.5 8.903v-.029C9.436 4.177 5.406.024.695 0 .59 0 .485.003.38.007.73 4.81 4.648 8.634 9.5 8.903z"/></svg></svg><svg width="10" height="8" xmlns="http://www.w3.org/2000/svg" xmlns:xlink="http://www.w3.org/1999/xlink" xmlns:svgjs="http://svgjs.com/svgjs" viewBox="0 0.075 10 7.851" fill="none" x="598" y="30"><svg xmlns="http://www.w3.org/2000/svg" xmlns:xlink="http://www.w3.org/1999/xlink" width="10" height="8" viewBox="0.487 0.171 9.391 7.372"><path paint-order="stroke fill markers" d="M.487.171a597.834 597.834 0 0 1 4.947 6.716 1.56 1.56 0 0 0 1.261.657c.516 0 .974-.26 1.261-.657 0 .001.856-1.18 1.922-2.633C6.781 2.955 3.64 1.557.488.17z"/></svg></svg><svg width="19" height="20" xmlns="http://www.w3.org/2000/svg" xmlns:xlink="http://www.w3.org/1999/xlink" xmlns:svgjs="http://svgjs.com/svgjs" viewBox="0.351 0 18.298 20" fill="none" x="595" y="15"><svg xmlns="http://www.w3.org/2000/svg" xmlns:xlink="http://www.w3.org/1999/xlink" width="19" height="20" viewBox="0.891 0.007 17.609 19.247"><path paint-order="stroke fill markers" d="M18.5 8.903C13.648 8.633 9.73 4.81 9.38.007 4.811.212.95 4.279.891 8.874c-.017 1.912.631 3.677 1.724 5.134 0 0 .348.46.872 1.163 2.575 2.343 5.856 3.893 9.391 4.083 1.69-2.308 3.9-5.252 3.897-5.246 1.088-1.45 1.735-3.204 1.725-5.105z"/></svg></svg><svg width="19" height="23" xmlns="http://www.w3.org/2000/svg" xmlns:xlink="http://www.w3.org/1999/xlink" xmlns:svgjs="http://svgjs.com/svgjs" viewBox="0.517 0 17.966 23" fill="#1894ff" x="595" y="15"><svg xmlns="http://www.w3.org/2000/svg" xmlns:xlink="http://www.w3.org/1999/xlink" width="19" height="23" viewBox="0.891 0 17.609 22.544"><path paint-order="stroke fill markers" fill-rule="evenodd" d="M18.5 8.874C18.436 4.177 14.406.024 9.695 0 4.985.023.954 4.177.891 8.874c-.017 1.912.631 3.677 1.724 5.134.01-.028 5.85 7.878 5.819 7.88a1.56 1.56 0 0 0 1.261.655c.516 0 .974-.259 1.261-.656-.03-.001 5.81-7.907 5.82-7.88 1.092-1.456 1.74-3.22 1.724-5.133z"/></svg></svg><svg width="14" height="14" xmlns="http://www.w3.org/2000/svg" xmlns:xlink="http://www.w3.org/1999/xlink" xmlns:svgjs="http://svgjs.com/svgjs" viewBox="0.008 0 13.984 14" fill="#fff" x="598" y="17"><svg xmlns="http://www.w3.org/2000/svg" xmlns:xlink="http://www.w3.org/1999/xlink" width="14" height="14" viewBox="0.292 0.404 12.806 12.821"><path paint-order="stroke fill markers" fill-rule="evenodd" d="M13.098 6.846c.02 3.476-2.881 6.369-6.403 6.379-3.522-.01-6.423-2.903-6.403-6.379C.324 3.371 3.224.413 6.695.404c3.471.009 6.372 2.967 6.403 6.442z"/></svg></svg><svg width="8" height="8" xmlns="http://www.w3.org/2000/svg" xmlns:xlink="http://www.w3.org/1999/xlink" xmlns:svgjs="http://svgjs.com/svgjs" viewBox="0.001 0 7.997 8" fill="#00de9a" x="601" y="20"><svg xmlns="http://www.w3.org/2000/svg" width="8" height="8" viewBox="0.073 0.191 7.245 7.247"><path paint-order="stroke fill markers" fill-rule="evenodd" d="M4.899 2.307L4.892.497a.304.304 0 0 0-.3-.304C3.994.19 3.396.19 2.798.193c-.165.001-.299.137-.3.304l-.006 1.81a.304.304 0 0 1-.302.303c-.602.003-1.204.008-1.806.015a.308.308 0 0 0-.303.304c-.004.6-.007 1.198-.008 1.798a.3.3 0 0 0 .301.3l1.812-.004c.166 0 .302.135.301.301l.001 1.811c0 .166.136.302.302.302H4.6a.303.303 0 0 0 .302-.302v-1.81c0-.167.136-.302.303-.302l1.812.003a.3.3 0 0 0 .3-.299c0-.6-.003-1.199-.008-1.798a.307.307 0 0 0-.302-.304c-.603-.007-1.205-.012-1.807-.015a.304.304 0 0 1-.301-.303z"/></svg></svg></svg>